<svg width="22" height="24" viewBox="0 0 22 24" fill="none" xmlns="http://www.w3.org/2000/svg">
<path d="M21 19H20V11C19.9989 8.78694 19.1825 6.65185 17.7068 5.00268C16.231 3.35351 14.1994 2.3059 12 2.06V1C12 0.734784 11.8946 0.48043 11.7071 0.292893C11.5196 0.105357 11.2652 0 11 0C10.7348 0 10.4804 0.105357 10.2929 0.292893C10.1054 0.48043 10 0.734784 10 1V2.06C7.80064 2.3059 5.76899 3.35351 4.29322 5.00268C2.81745 6.65185 2.00105 8.78694 2 11V19H1C0.734784 19 0.48043 19.1054 0.292893 19.2929C0.105357 19.4804 0 19.7348 0 20C0 20.2652 0.105357 20.5196 0.292893 20.7071C0.48043 20.8946 0.734784 21 1 21H7.14C7.37028 21.8474 7.873 22.5954 8.5706 23.1287C9.26819 23.6621 10.1219 23.951 11 23.951C11.8781 23.951 12.7318 23.6621 13.4294 23.1287C14.127 22.5954 14.6297 21.8474 14.86 21H21C21.2652 21 21.5196 20.8946 21.7071 20.7071C21.8946 20.5196 22 20.2652 22 20C22 19.7348 21.8946 19.4804 21.7071 19.2929C21.5196 19.1054 21.2652 19 21 19ZM11 22C10.651 21.9979 10.3086 21.9045 10.0068 21.7291C9.70509 21.5536 9.45451 21.3023 9.28 21H12.72C12.5455 21.3023 12.2949 21.5536 11.9932 21.7291C11.6914 21.9045 11.349 21.9979 11 22ZM4 19V11C4 9.14348 4.7375 7.36301 6.05025 6.05025C7.36301 4.7375 9.14348 4 11 4C12.8565 4 14.637 4.7375 15.9497 6.05025C17.2625 7.36301 18 9.14348 18 11V19H4Z" fill="#050D02"/>
</svg>
