<svg width="22" height="15" viewBox="0 0 22 15" fill="none" xmlns="http://www.w3.org/2000/svg">
<path d="M7.66699 0.25C8.42767 0.250182 8.9502 0.888786 8.9502 1.5C8.9502 1.81895 8.83464 2.10742 8.58008 2.35645L5.03809 5.82129L4.60059 6.25H19.9336C20.647 6.25014 21.2168 6.81531 21.2168 7.5C21.2168 8.18469 20.647 8.74986 19.9336 8.75H4.60059L5.03809 9.17871L8.58008 12.6436C8.83464 12.8926 8.9502 13.181 8.9502 13.5C8.9502 14.1113 8.42836 14.7498 7.66699 14.75C7.32605 14.75 7.03369 14.6313 6.78418 14.3867H6.7832L0.669922 8.40625C0.533491 8.27277 0.432952 8.16074 0.363281 8.02832C0.295847 7.90009 0.25 7.73818 0.25 7.5C0.25 7.0526 0.450013 6.80958 0.682617 6.58203L6.7832 0.613281H6.78418C7.03369 0.368711 7.32605 0.25 7.66699 0.25Z" fill="white" stroke="#1176BD" stroke-width="0.5"/>
</svg>
