<svg width="24" height="24" viewBox="0 0 24 24" fill="none" xmlns="http://www.w3.org/2000/svg">
<g clip-path="url(#clip0_4008_1027)">
<path d="M16.8352 7.61829C16.4633 7.24671 15.8617 7.24702 15.4904 7.61829L12.0006 11.108L8.51194 7.61829C8.14035 7.24702 7.53873 7.24671 7.16714 7.61829C6.79585 7.98956 6.79585 8.59147 7.16714 8.96305L10.6561 12.4528L7.16714 15.941C6.79585 16.3125 6.79585 16.9141 7.16714 17.2857C7.35263 17.4712 7.59608 17.5639 7.83954 17.5639C8.08269 17.5639 8.32615 17.4712 8.51194 17.2857L12.0006 13.7972L15.488 17.2854C15.6735 17.4712 15.9169 17.5639 16.1604 17.5639C16.4038 17.5639 16.647 17.4712 16.8325 17.2857C17.2041 16.9144 17.2041 16.3125 16.8328 15.9413L13.3451 12.4528L16.8352 8.96274C17.2065 8.59177 17.2065 7.98956 16.8352 7.61829Z" fill="#231F20"/>
<path d="M12.002 0C5.38411 0 0 5.38391 0 12.0015C0 18.6176 5.38411 24 12.002 24C18.6177 24 24 18.6173 24 12.0012C24 5.38391 18.6177 0 12.002 0ZM12.002 22.0988C6.43268 22.0988 1.90189 17.5691 1.90189 12.0015C1.90189 6.43244 6.43299 1.90182 12.002 1.90182C17.5695 1.90182 22.0984 6.43274 22.0984 12.0015C22.0984 17.5691 17.5691 22.0988 12.002 22.0988Z" fill="#231F20"/>
</g>
<defs>
<clipPath id="clip0_4008_1027">
<rect width="24" height="24" fill="white"/>
</clipPath>
</defs>
</svg>
