<svg width="22" height="22" viewBox="0 0 22 22" fill="none" xmlns="http://www.w3.org/2000/svg">
<path d="M2.12411 21.1842C2.12411 21.6204 2.46549 21.9618 2.90169 21.9618C3.33789 21.9618 3.67926 21.6204 3.67926 21.1842V5.78441C4.93097 5.44303 5.86027 4.30512 5.86027 2.93962C5.86027 1.32757 4.55167 0 2.92065 0C1.28964 0 0 1.32757 0 2.93962C0 4.28615 0.910333 5.42407 2.14308 5.76544V21.1842H2.12411ZM1.51722 2.93962C1.51722 2.18101 2.14308 1.55515 2.90169 1.55515C3.6603 1.55515 4.28615 2.18101 4.28615 2.93962C4.28615 3.69823 3.6603 4.32408 2.90169 4.32408C2.14308 4.32408 1.51722 3.69823 1.51722 2.93962Z" fill="black"/>
<path d="M10.981 0C10.5448 0 10.2034 0.341375 10.2034 0.777576V8.78092C8.97064 9.1223 8.0603 10.2602 8.0603 11.6067C8.0603 12.9533 8.97064 14.0912 10.2034 14.4326V21.2032C10.2034 21.6394 10.5448 21.9807 10.981 21.9807C11.4172 21.9807 11.7585 21.6394 11.7585 21.2032V14.4326C13.0102 14.0912 13.9395 12.9533 13.9395 11.5878C13.9395 10.2223 13.0102 9.08436 11.7585 8.74299V0.777576C11.7585 0.341375 11.4172 0 10.981 0ZM12.4034 11.6067C12.4034 12.3654 11.7775 12.9912 11.0189 12.9912C10.2603 12.9912 9.63442 12.3654 9.63442 11.6067C9.63442 10.8481 10.2603 10.2223 11.0189 10.2223C11.7775 10.2223 12.4034 10.8292 12.4034 11.6067Z" fill="black"/>
<path d="M19.8378 16.1963V0.777576C19.8378 0.341375 19.4964 0 19.0602 0C18.624 0 18.2826 0.341375 18.2826 0.777576V16.1963C17.0309 16.5377 16.1206 17.6756 16.1206 19.0222C16.1206 20.6342 17.4292 21.9618 19.0602 21.9618C20.6912 21.9618 21.9998 20.6532 21.9998 19.0222C22.0188 17.6756 21.0895 16.5377 19.8378 16.1963ZM19.0792 20.4066C18.3206 20.4066 17.6947 19.7808 17.6947 19.0222C17.6947 18.2636 18.3206 17.6377 19.0792 17.6377C19.8378 17.6377 20.4637 18.2636 20.4637 19.0222C20.4637 19.7808 19.8378 20.4066 19.0792 20.4066Z" fill="black"/>
</svg>
