<svg width="23" height="23" viewBox="0 0 23 23" fill="none" xmlns="http://www.w3.org/2000/svg">
<path d="M7.25 7.25V4.33333C7.25 3.16656 7.25 2.58317 7.47707 2.13752C7.6768 1.74551 7.99551 1.4268 8.38752 1.22707C8.83317 1 9.41656 1 10.5833 1H18.5C19.6668 1 20.2502 1 20.6958 1.22707C21.0878 1.4268 21.4066 1.74551 21.6062 2.13752C21.8333 2.58317 21.8333 3.16656 21.8333 4.33333V12.25C21.8333 13.4168 21.8333 14.0002 21.6062 14.4458C21.4066 14.8378 21.0878 15.1566 20.6958 15.3562C20.2502 15.5833 19.6668 15.5833 18.5 15.5833H15.5833M4.33333 21.8333H12.25C13.4168 21.8333 14.0002 21.8333 14.4458 21.6062C14.8378 21.4066 15.1566 21.0878 15.3562 20.6958C15.5833 20.2502 15.5833 19.6668 15.5833 18.5V10.5833C15.5833 9.41656 15.5833 8.83317 15.3562 8.38752C15.1566 7.99551 14.8378 7.6768 14.4458 7.47707C14.0002 7.25 13.4168 7.25 12.25 7.25H4.33333C3.16656 7.25 2.58317 7.25 2.13752 7.47707C1.74551 7.6768 1.4268 7.99551 1.22707 8.38752C1 8.83317 1 9.41656 1 10.5833V18.5C1 19.6668 1 20.2502 1.22707 20.6958C1.4268 21.0878 1.74551 21.4066 2.13752 21.6062C2.58317 21.8333 3.16655 21.8333 4.33333 21.8333Z" stroke="black" stroke-width="2" stroke-linecap="round" stroke-linejoin="round"/>
</svg>
