<svg width="22" height="25" viewBox="0 0 22 25" fill="none" xmlns="http://www.w3.org/2000/svg">
<path d="M21.015 3.84188H16.4812V0.84375C16.4812 0.619974 16.3924 0.405362 16.2341 0.247129C16.0759 0.0888947 15.8613 0 15.6375 0H6.22125C5.99747 0 5.78286 0.0888947 5.62463 0.247129C5.46639 0.405362 5.3775 0.619974 5.3775 0.84375V3.84188H0.84375C0.619974 3.84188 0.405363 3.93077 0.247129 4.089C0.0888953 4.24724 0 4.46185 0 4.68563C0 4.9094 0.0888953 5.12401 0.247129 5.28225C0.405363 5.44048 0.619974 5.52938 0.84375 5.52938H1.92938V21.0938C1.93087 21.9118 2.25688 22.6958 2.83585 23.2737C3.41483 23.8517 4.19945 24.1763 5.0175 24.1763H16.8862C17.6965 24.1644 18.4696 23.8347 19.0389 23.258C19.6082 22.6814 19.928 21.9041 19.9294 21.0938V5.52938H20.9925C21.2163 5.53236 21.4321 5.44633 21.5924 5.2902C21.7528 5.13408 21.8445 4.92065 21.8475 4.69688C21.8505 4.4731 21.7645 4.2573 21.6083 4.09696C21.4522 3.93661 21.2388 3.84486 21.015 3.84188ZM7.065 1.6875H14.7937V3.84188H7.065V1.6875ZM18.2419 21.0938C18.2404 21.4642 18.0922 21.8191 17.8297 22.0805C17.5672 22.342 17.2117 22.4888 16.8412 22.4888H4.995C4.62842 22.4829 4.27875 22.3335 4.02109 22.0727C3.76342 21.8118 3.6183 21.4604 3.61688 21.0938V5.52938H18.2419V21.0938Z" fill="black"/>
<path d="M8.67969 8.64551C8.45591 8.64551 8.2413 8.7344 8.08307 8.89264C7.92483 9.05087 7.83594 9.26548 7.83594 9.48926V18.5399C7.83594 18.7637 7.92483 18.9783 8.08307 19.1365C8.2413 19.2947 8.45591 19.3836 8.67969 19.3836C8.90346 19.3836 9.11807 19.2947 9.27631 19.1365C9.43454 18.9783 9.52344 18.7637 9.52344 18.5399V9.48926C9.52344 9.26548 9.43454 9.05087 9.27631 8.89264C9.11807 8.7344 8.90346 8.64551 8.67969 8.64551Z" fill="black"/>
<path d="M13.1797 8.64551C12.9559 8.64551 12.7413 8.7344 12.5831 8.89264C12.4248 9.05087 12.3359 9.26548 12.3359 9.48926V18.5399C12.3359 18.7637 12.4248 18.9783 12.5831 19.1365C12.7413 19.2947 12.9559 19.3836 13.1797 19.3836C13.4035 19.3836 13.6181 19.2947 13.7763 19.1365C13.9345 18.9783 14.0234 18.7637 14.0234 18.5399V9.48926C14.0234 9.26548 13.9345 9.05087 13.7763 8.89264C13.6181 8.7344 13.4035 8.64551 13.1797 8.64551Z" fill="black"/>
</svg>
