<svg width="23" height="23" viewBox="0 0 23 23" fill="none" xmlns="http://www.w3.org/2000/svg">
<path fill-rule="evenodd" clip-rule="evenodd" d="M15.7944 0.356962C16.2704 -0.11899 17.0421 -0.118985 17.5181 0.356962L22.2248 5.06368C22.7007 5.53965 22.7007 6.31132 22.2248 6.78724L7.4883 21.5237C7.46515 21.5475 7.44052 21.5699 7.41462 21.5906C7.3125 21.6728 7.19509 21.7265 7.07296 21.752C7.05341 21.7561 7.03366 21.7595 7.01365 21.7622L0.919891 22.5747C0.669042 22.6081 0.416928 22.5228 0.23798 22.3438C0.0590375 22.1649 -0.0263107 21.9128 0.00713381 21.6619L0.81841 15.5773C0.839474 15.4032 0.916829 15.2346 1.05048 15.1009L15.7944 0.356962ZM18.3509 8.36299L6.9062 19.8077L2.77401 15.6755L14.2187 4.23081L18.3509 8.36299ZM19.5 7.21396L20.7885 5.92549L16.6562 1.79327L15.3678 3.08175L19.5 7.21396ZM2.21308 17.4127L1.7583 20.8235L5.16913 20.3687L2.21308 17.4127Z" fill="black"/>
</svg>
