<svg width="24" height="24" viewBox="0 0 24 24" fill="none" xmlns="http://www.w3.org/2000/svg">
<path d="M18.75 3H5.25C4.25544 3 3.30161 3.39509 2.59835 4.09835C1.89509 4.80161 1.5 5.75544 1.5 6.75V17.25C1.5 18.2446 1.89509 19.1984 2.59835 19.9016C3.30161 20.6049 4.25544 21 5.25 21H18.75C19.7446 21 20.6984 20.6049 21.4016 19.9016C22.1049 19.1984 22.5 18.2446 22.5 17.25V6.75C22.5 5.75544 22.1049 4.80161 21.4016 4.09835C20.6984 3.39509 19.7446 3 18.75 3ZM21 17.25C21 17.8467 20.7629 18.419 20.341 18.841C19.919 19.2629 19.3467 19.5 18.75 19.5H5.25C4.65326 19.5 4.08097 19.2629 3.65901 18.841C3.23705 18.419 3 17.8467 3 17.25V6.75C3 6.15326 3.23705 5.58097 3.65901 5.15901C4.08097 4.73705 4.65326 4.5 5.25 4.5H18.75C19.3467 4.5 19.919 4.73705 20.341 5.15901C20.7629 5.58097 21 6.15326 21 6.75V17.25Z" fill="black"/>
<path d="M8.25 10.5C8.69501 10.5 9.13002 10.368 9.50003 10.1208C9.87004 9.87357 10.1584 9.52217 10.3287 9.11104C10.499 8.69991 10.5436 8.24751 10.4568 7.81105C10.37 7.37459 10.1557 6.97368 9.84099 6.65901C9.52632 6.34434 9.12541 6.13005 8.68895 6.04323C8.2525 5.95642 7.8001 6.00097 7.38896 6.17127C6.97783 6.34157 6.62643 6.62996 6.37919 6.99997C6.13196 7.36998 6 7.80499 6 8.25C6 8.84674 6.23705 9.41903 6.65901 9.84099C7.08097 10.2629 7.65326 10.5 8.25 10.5ZM8.25 7.5C8.39834 7.5 8.54334 7.54399 8.66668 7.6264C8.79001 7.70881 8.88614 7.82594 8.94291 7.96299C8.99968 8.10003 9.01453 8.25083 8.98559 8.39632C8.95665 8.5418 8.88522 8.67544 8.78033 8.78033C8.67544 8.88522 8.5418 8.95665 8.39632 8.98559C8.25083 9.01453 8.10003 8.99968 7.96299 8.94291C7.82594 8.88615 7.70881 8.79002 7.6264 8.66668C7.54399 8.54334 7.5 8.39834 7.5 8.25C7.5 8.05109 7.57902 7.86032 7.71967 7.71967C7.86032 7.57902 8.05109 7.5 8.25 7.5Z" fill="black"/>
<path d="M8.25 11.25C7.25544 11.25 6.30161 11.6451 5.59835 12.3483C4.89509 13.0516 4.5 14.0054 4.5 15V15.75C4.5 16.3467 4.73705 16.919 5.15901 17.341C5.58097 17.7629 6.15326 18 6.75 18H9.75C10.3467 18 10.919 17.7629 11.341 17.341C11.7629 16.919 12 16.3467 12 15.75V15C12 14.0054 11.6049 13.0516 10.9017 12.3483C10.1984 11.6451 9.24456 11.25 8.25 11.25ZM10.5 15.75C10.5 15.9489 10.421 16.1397 10.2803 16.2803C10.1397 16.421 9.94891 16.5 9.75 16.5H6.75C6.55109 16.5 6.36032 16.421 6.21967 16.2803C6.07902 16.1397 6 15.9489 6 15.75V15C6 14.4033 6.23705 13.831 6.65901 13.409C7.08097 12.9871 7.65326 12.75 8.25 12.75C8.84674 12.75 9.41903 12.9871 9.84099 13.409C10.2629 13.831 10.5 14.4033 10.5 15V15.75Z" fill="black"/>
<path d="M18.75 7.5H14.25C14.0511 7.5 13.8603 7.57902 13.7197 7.71967C13.579 7.86032 13.5 8.05109 13.5 8.25C13.5 8.44891 13.579 8.63968 13.7197 8.78033C13.8603 8.92098 14.0511 9 14.25 9H18.75C18.9489 9 19.1397 8.92098 19.2803 8.78033C19.421 8.63968 19.5 8.44891 19.5 8.25C19.5 8.05109 19.421 7.86032 19.2803 7.71967C19.1397 7.57902 18.9489 7.5 18.75 7.5Z" fill="black"/>
<path d="M18.75 11.25H14.25C14.0511 11.25 13.8603 11.329 13.7197 11.4697C13.579 11.6103 13.5 11.8011 13.5 12C13.5 12.1989 13.579 12.3897 13.7197 12.5303C13.8603 12.671 14.0511 12.75 14.25 12.75H18.75C18.9489 12.75 19.1397 12.671 19.2803 12.5303C19.421 12.3897 19.5 12.1989 19.5 12C19.5 11.8011 19.421 11.6103 19.2803 11.4697C19.1397 11.329 18.9489 11.25 18.75 11.25Z" fill="black"/>
<path d="M18.75 15H14.25C14.0511 15 13.8603 15.079 13.7197 15.2197C13.579 15.3603 13.5 15.5511 13.5 15.75C13.5 15.9489 13.579 16.1397 13.7197 16.2803C13.8603 16.421 14.0511 16.5 14.25 16.5H18.75C18.9489 16.5 19.1397 16.421 19.2803 16.2803C19.421 16.1397 19.5 15.9489 19.5 15.75C19.5 15.5511 19.421 15.3603 19.2803 15.2197C19.1397 15.079 18.9489 15 18.75 15Z" fill="black"/>
</svg>
