<svg width="22" height="18" viewBox="0 0 22 18" fill="none" xmlns="http://www.w3.org/2000/svg">
<g clip-path="url(#clip0_2034_3126)">
<path d="M15.5827 17.1002V15.3002C15.5827 14.3454 15.1964 13.4297 14.5087 12.7546C13.8211 12.0795 12.8885 11.7002 11.916 11.7002H4.58268C3.61022 11.7002 2.67759 12.0795 1.98996 12.7546C1.30232 13.4297 0.916016 14.3454 0.916016 15.3002V17.1002" stroke="#676767" stroke-width="1.5" stroke-linecap="round" stroke-linejoin="round"/>
<path d="M8.25065 8.0999C10.2757 8.0999 11.9173 6.48813 11.9173 4.4999C11.9173 2.51168 10.2757 0.899902 8.25065 0.899902C6.22561 0.899902 4.58398 2.51168 4.58398 4.4999C4.58398 6.48813 6.22561 8.0999 8.25065 8.0999Z" stroke="#676767" stroke-width="1.5" stroke-linecap="round" stroke-linejoin="round"/>
<path d="M21.084 17.0999V15.2999C21.0834 14.5022 20.813 13.7274 20.3152 13.097C19.8175 12.4666 19.1206 12.0163 18.334 11.8169" stroke="#676767" stroke-width="1.5" stroke-linecap="round" stroke-linejoin="round"/>
<path d="M14.666 1.01709C15.4547 1.21536 16.1538 1.66572 16.653 2.29717C17.1522 2.92862 17.4232 3.70524 17.4232 4.50459C17.4232 5.30394 17.1522 6.08056 16.653 6.71201C16.1538 7.34346 15.4547 7.79382 14.666 7.99209" stroke="#676767" stroke-width="1.5" stroke-linecap="round" stroke-linejoin="round"/>
</g>
<defs>
<clipPath id="clip0_2034_3126">
<rect width="22" height="18" fill="white"/>
</clipPath>
</defs>
</svg>
