<svg width="18" height="15" viewBox="0 0 18 15" fill="none" xmlns="http://www.w3.org/2000/svg">
<path d="M11.967 8.03199C12.8268 7.45382 13.4543 6.66097 13.7624 5.76375C14.0704 4.86654 14.0436 3.90957 13.6857 3.02598C13.3278 2.14239 12.6565 1.37612 11.7654 0.833783C10.8742 0.291443 9.80746 0 8.7135 0C7.61953 0 6.55277 0.291443 5.66162 0.833783C4.77046 1.37612 4.09924 2.14239 3.74132 3.02598C3.38341 3.90957 3.3566 4.86654 3.66463 5.76375C3.97266 6.66097 4.60021 7.45382 5.45998 8.03199C3.98675 8.53648 2.70131 9.37323 1.7407 10.453C0.780082 11.5328 0.180298 12.8152 0.00528968 14.1635C-0.00737836 14.2619 0.002761 14.3615 0.0351286 14.4566C0.0674962 14.5517 0.121458 14.6404 0.193934 14.7176C0.340305 14.8737 0.553199 14.9736 0.785784 14.9955C1.01837 15.0173 1.25159 14.9593 1.43414 14.8342C1.61669 14.7091 1.73362 14.5272 1.75921 14.3284C1.95178 12.8631 2.76919 11.5098 4.05528 10.5271C5.34137 9.54445 7.00597 9.0012 8.73104 9.0012C10.4561 9.0012 12.1207 9.54445 13.4068 10.5271C14.6929 11.5098 15.5103 12.8631 15.7029 14.3284C15.7267 14.5125 15.8295 14.6826 15.9915 14.8058C16.1534 14.929 16.363 14.9966 16.5798 14.9955H16.6763C16.9062 14.9729 17.1163 14.8735 17.2608 14.7191C17.4054 14.5646 17.4727 14.3676 17.448 14.1709C17.2722 12.8189 16.6692 11.5332 15.7036 10.4517C14.7381 9.37029 13.4464 8.53381 11.967 8.03199ZM8.7135 7.4998C8.01971 7.4998 7.34151 7.32395 6.76465 6.9945C6.18779 6.66504 5.73818 6.19678 5.47268 5.64892C5.20718 5.10105 5.13771 4.4982 5.27306 3.91659C5.40841 3.33499 5.7425 2.80074 6.23308 2.38143C6.72366 1.96211 7.3487 1.67656 8.02915 1.56087C8.70961 1.44518 9.41492 1.50455 10.0559 1.73149C10.6969 1.95842 11.2447 2.34271 11.6302 2.83578C12.0156 3.32884 12.2213 3.90852 12.2213 4.50153C12.2213 5.29672 11.8518 6.05934 11.1939 6.62162C10.5361 7.18391 9.64383 7.4998 8.7135 7.4998Z" fill="#050D02"/>
</svg>
