<svg width="21" height="21" viewBox="0 0 21 21" fill="none" xmlns="http://www.w3.org/2000/svg">
<path d="M11.8125 18.375L11.8125 5.775L14.8444 8.80688C15.1029 9.06544 15.4114 9.1875 15.75 9.1875C16.3958 9.1875 17.0625 8.65397 17.0625 7.875C17.0625 7.52653 16.9358 7.22269 16.6819 6.96938L11.4594 1.74694C11.2442 1.53169 10.9784 1.3125 10.5 1.3125C10.0216 1.3125 9.79125 1.49559 9.55041 1.73644L4.31813 6.96938C4.06416 7.22269 3.9375 7.52653 3.9375 7.875C3.9375 8.65463 4.60425 9.1875 5.25 9.1875C5.58863 9.1875 5.89706 9.06544 6.15562 8.80688L9.1875 5.775L9.1875 18.375C9.1875 19.0995 9.7755 19.6875 10.5 19.6875C11.2245 19.6875 11.8125 19.0995 11.8125 18.375Z" fill="#DC0000"/>
</svg>
