<svg width="24" height="24" viewBox="0 0 24 24" fill="none" xmlns="http://www.w3.org/2000/svg">
<path d="M7.83789 2.95801C6.53363 2.95801 5.31113 3.46622 4.38867 4.38867C3.46622 5.31113 2.95801 6.53363 2.95801 7.83789C2.95811 9.14242 3.46633 10.3642 4.38867 11.2861C5.31111 12.2085 6.53368 12.7158 7.83789 12.7158C8.62181 12.7158 9.40176 12.5255 10.0967 12.1641L10.3672 12.0225L10.4492 11.9805L10.5137 12.0449L12.3906 13.9229L14.8623 14.7988L14.9277 14.8223L14.9424 14.8896L15.3545 16.7441L17.2432 17.1611L17.3213 17.1787L17.3379 17.2568L17.7383 19.0684L19.124 19.0996L19.1963 19.1016L19.2305 19.166L20.2412 21.042H21.042V19.7217L12.0479 10.5088L11.9854 10.4443L12.0264 10.3643L12.1641 10.0977V10.0967C13.1554 8.19514 12.8017 5.90427 11.2861 4.38867C10.3642 3.46639 9.14239 2.95811 7.83789 2.95801ZM6.58301 4.375C7.80069 4.375 8.79182 5.36537 8.79199 6.58301C8.79199 7.80079 7.80079 8.79199 6.58301 8.79199C5.36537 8.79182 4.375 7.80069 4.375 6.58301C4.37518 5.36548 5.36548 4.37518 6.58301 4.375ZM6.58301 5.45801C5.96313 5.45818 5.45818 5.96313 5.45801 6.58301C5.45801 7.20303 5.96303 7.70783 6.58301 7.70801C7.20314 7.70801 7.70801 7.20314 7.70801 6.58301C7.70783 5.96303 7.20303 5.45801 6.58301 5.45801ZM22.125 22.125H19.5918L19.5566 22.0596L18.541 20.168L16.9639 20.1328L16.8662 20.1309L16.8447 20.0352L16.4111 18.0879L14.5234 17.6719L14.4453 17.6553L14.4277 17.5771L14.001 15.6436L11.8291 14.876L11.8018 14.8672L11.7822 14.8467L10.2334 13.2979C9.4804 13.6277 8.65953 13.7998 7.83789 13.7998C6.24646 13.7998 4.74759 13.1788 3.62012 12.0557V12.0547C2.49697 10.9273 1.8751 9.42929 1.875 7.83789C1.875 6.24635 2.49687 4.74761 3.62012 3.62012C4.74761 2.49687 6.24635 1.875 7.83789 1.875C9.32972 1.8751 10.7395 2.42144 11.8389 3.41504L12.0547 3.62012L12.2178 3.78906C13.8377 5.54223 14.254 8.06278 13.2979 10.2344L22.0898 19.2422L22.125 19.2783V22.125Z" fill="#050D02" stroke="#050D02" stroke-width="0.25"/>
</svg>
