<svg width="22" height="22" viewBox="0 0 22 22" fill="none" xmlns="http://www.w3.org/2000/svg">
<path d="M15.4276 18.9318L15.4276 9.84091L20.75 9.84091L20.75 20.75L15.4276 20.75L15.4276 18.5682C14.097 20.0227 11.7907 20.75 9.92787 20.75L4.16198 20.75C3.18621 20.75 2.29915 20.0227 2.12174 18.9318L0.791153 11.1136C0.525036 9.75 1.58951 8.93182 2.83139 8.93182L7.4441 8.93182L7.4441 2.93182C7.4441 1.75 8.59728 0.749999 9.75046 0.749999C10.9036 0.749999 11.8794 1.75 11.8794 2.93182C11.8794 4.38636 12.3229 5.75 13.1213 6.93182L15.4276 9.65909" stroke="black" stroke-width="1.5" stroke-miterlimit="10" stroke-linecap="round" stroke-linejoin="round"/>
</svg>
