<svg width="16" height="16" viewBox="0 0 16 16" fill="none" xmlns="http://www.w3.org/2000/svg">
<g clip-path="url(#clip0_8036_1912)">
<path fill-rule="evenodd" clip-rule="evenodd" d="M13.3771 15.2875H2.63542C1.18258 15.2875 -0.0078125 14.1065 -0.0078125 12.663C-0.0078125 12.3725 0.0484265 12.0913 0.142158 11.8194C0.189024 11.6601 0.264009 11.4914 0.357741 11.332L5.70982 2.07134C5.86916 1.79015 6.05663 1.55582 6.28158 1.36836L6.3097 1.34024L6.31908 1.32149C7.15329 0.60913 8.36243 0.506025 9.33724 1.04967C9.74028 1.284 10.0683 1.62143 10.3589 2.11821L15.6548 11.332C15.8703 11.7257 15.9922 12.1662 16.0016 12.6349V12.6537C16.0203 13.3379 15.7485 14.0034 15.2517 14.5095C14.7549 15.0157 14.0894 15.2875 13.3771 15.2875Z" fill="#FF3535"/>
<path fill-rule="evenodd" clip-rule="evenodd" d="M13.3773 14.1814H2.63564C1.80143 14.1814 1.11719 13.5065 1.11719 12.6723C1.11719 12.5036 1.13593 12.3349 1.20155 12.1849L1.22029 12.138C1.24841 12.063 1.26716 11.9881 1.3234 11.9037L6.67548 2.65237C6.75984 2.48366 6.87231 2.34306 7.01291 2.23995L7.02228 2.22121L7.04103 2.21184C7.52844 1.79004 8.22205 1.74318 8.76569 2.05249C9.03752 2.21184 9.26247 2.44616 9.38432 2.71799L14.6895 11.9224C14.8208 12.1661 14.8864 12.4192 14.8864 12.6723C14.8864 13.5065 14.2115 14.1814 13.3773 14.1814Z" fill="#FF4141"/>
<path fill-rule="evenodd" clip-rule="evenodd" d="M7.99749 8.73567C7.52883 8.73567 7.14453 8.35137 7.14453 7.87334V5.22073C7.14453 4.75207 7.51946 4.3584 7.99749 4.3584C8.48489 4.3584 8.85982 4.75207 8.85982 5.22073V7.87334C8.85982 8.342 8.46615 8.73567 7.99749 8.73567Z" fill="white"/>
<path fill-rule="evenodd" clip-rule="evenodd" d="M7.99668 11.6508C7.44366 11.6508 6.98438 11.1915 6.98438 10.6197C6.98438 10.0573 7.44366 9.60742 7.99668 9.60742C8.55907 9.60742 9.01835 10.0573 9.01835 10.6197C9.01835 11.1915 8.55907 11.6508 7.99668 11.6508Z" fill="white"/>
</g>
<defs>
<clipPath id="clip0_8036_1912">
<rect width="16" height="16" fill="white"/>
</clipPath>
</defs>
</svg>
