<svg width="16" height="17" viewBox="0 0 16 17" fill="none" xmlns="http://www.w3.org/2000/svg">
<path d="M11.4843 11.3559C12.6584 10.1141 13.3169 8.46628 13.3248 6.75044C13.3327 5.03459 12.6895 3.38071 11.5269 2.12791C10.3643 0.875107 8.77058 0.118326 7.07243 0.0127425C5.37428 -0.0928415 3.70042 0.460772 2.39407 1.56007C1.08772 2.65936 0.247871 4.22103 0.0467388 5.92486C-0.154393 7.62869 0.29843 9.34556 1.31236 10.7234C2.32628 12.1013 3.82448 13.0358 5.49975 13.3352C7.17501 13.6347 8.9004 13.2764 10.3221 12.3339L14.9488 17L16 15.9399L11.4843 11.3559ZM9.26353 11.2514C8.13124 11.942 6.78159 12.1744 5.48622 11.9019C4.19086 11.6293 3.04594 10.872 2.28191 9.78244C1.51788 8.69285 1.19145 7.35182 1.36834 6.02927C1.54522 4.70673 2.21228 3.50084 3.23525 2.65433C4.25822 1.80782 5.56117 1.38353 6.88185 1.46685C8.20252 1.55017 9.44288 2.13491 10.3533 3.1034C11.2637 4.07188 11.7765 5.3522 11.7886 6.68667C11.8007 8.02114 11.3111 9.31068 10.4184 10.2958C10.0861 10.666 9.70202 10.9854 9.27833 11.2439L9.26353 11.2514Z" fill="black"/>
</svg>
