<svg width="15" height="16" viewBox="0 0 15 16" fill="none" xmlns="http://www.w3.org/2000/svg">
<path d="M5.63678 0C5.43788 0 5.24708 0.0790098 5.10642 0.21967C4.96577 0.36032 4.88674 0.55108 4.88674 0.75C4.88674 0.94891 4.96577 1.13967 5.10642 1.28033C5.24708 1.42098 5.43788 1.5 5.63678 1.5H13.9028C14.1017 1.5 14.2925 1.42098 14.4331 1.28033C14.5738 1.13967 14.6528 0.94891 14.6528 0.75C14.6528 0.55108 14.5738 0.36032 14.4331 0.21967C14.2925 0.0790098 14.1017 0 13.9028 0H5.63678ZM2.03675 0.75V13.393L1.27875 12.635C1.13753 12.4948 0.946395 12.4165 0.747425 12.4172C0.548445 12.418 0.357915 12.4977 0.217745 12.639C0.0775854 12.7802 -0.000744663 12.9713 5.33662e-06 13.1703C0.000755337 13.3693 0.0805251 13.5598 0.221745 13.7L2.25975 15.738C2.3294 15.8077 2.4121 15.8629 2.50313 15.9007C2.59416 15.9384 2.69172 15.9578 2.79025 15.9578C2.88879 15.9578 2.98635 15.9384 3.07738 15.9007C3.1684 15.8629 3.2511 15.8077 3.32074 15.738L3.34075 15.717L5.35978 13.7C5.49228 13.5578 5.56438 13.3697 5.56088 13.1754C5.55748 12.9811 5.47878 12.7957 5.34137 12.6583C5.20395 12.5209 5.01858 12.4422 4.82428 12.4388C4.62998 12.4354 4.44193 12.5075 4.29975 12.64L3.54175 13.398V0.75C3.54175 0.55108 3.46274 0.36032 3.32208 0.21967C3.18143 0.0790098 2.99067 0 2.79175 0C2.59284 0 2.40208 0.0790098 2.26142 0.21967C2.12076 0.36032 2.04175 0.55108 2.04175 0.75H2.03675ZM5.63678 4C5.43788 4 5.24708 4.07901 5.10642 4.21967C4.96577 4.36032 4.88674 4.55108 4.88674 4.75C4.88674 4.94891 4.96577 5.13968 5.10642 5.28033C5.24708 5.42098 5.43788 5.5 5.63678 5.5H11.3658C11.5647 5.5 11.7555 5.42098 11.8961 5.28033C12.0368 5.13968 12.1158 4.94891 12.1158 4.75C12.1158 4.55108 12.0368 4.36032 11.8961 4.21967C11.7555 4.07901 11.5647 4 11.3658 4H5.63678ZM5.63678 8.00004C5.43788 8.00004 5.24708 8.07904 5.10642 8.21964C4.96577 8.36034 4.88674 8.55104 4.88674 8.75004C4.88674 8.94894 4.96577 9.13964 5.10642 9.28034C5.24708 9.42094 5.43788 9.50004 5.63678 9.50004H8.85978C9.05868 9.50004 9.24948 9.42094 9.39008 9.28034C9.53078 9.13964 9.60978 8.94894 9.60978 8.75004C9.60978 8.55104 9.53078 8.36034 9.39008 8.21964C9.24948 8.07904 9.05868 8.00004 8.85978 8.00004H5.63678Z" fill="#3B434B"/>
</svg>
